# xmcd
#
# Track frame offsets:
#	183
#	9460
#	30888
#	44828
#	64170
#	79188
#	94645
#	109505
#	124455
#	145308
#	160698
#	186438
#	208140
#	230923
#
# Disc length: 3448 seconds
#
# Revision: 1
# Processed by: cddbd v1.5.1PL2 Copyright (c) Steve Scherf et al.
# Submitted via: SynApp - FreeCDDB Version: 2.2
#
DISCID=c40d760e
DTITLE=Gitanes Jazz  - Trombone
DYEAR=1992
DGENRE=Jazz
TTITLE0=Tommy Dorsey - I'm getting sentimental over you
TTITLE1=Benny Morton - Claude Jones - Bill Harris - Once in a while
TTITLE2=Juan Tizol - Zanzibar
TTITLE3=Steve Turre - Echoes of Harlem
TTITLE4=Lawrence Brown - Where or when
TTITLE5=Jack Taegarden - Love lies
TTITLE6=Kai Winding - Star dust
TTITLE7=Bob Brookmeyer - Curtis Fuller - You're my everything
TTITLE8=Jimmy Cleveland - A hundred Years from Today
TTITLE9=Melba Liston - Frank Rehak - The dark before the dawn
TTITLE10=J.J. Johnson - You've changed
TTITLE11=Jiggs Whigham - Am i Blue?
TTITLE12=Albert Mangelsdorff - Bill Watrous - Mississipi mud
TTITLE13=Bob BrookMeyer - On the sunny side of the street
EXTD=
EXTT0=
EXTT1=
EXTT2=
EXTT3=
EXTT4=
EXTT5=
EXTT6=
EXTT7=
EXTT8=
EXTT9=
EXTT10=
EXTT11=
EXTT12=
EXTT13=
PLAYORDER=
